<?xml version="1.0" encoding="utf-8"?>
<!-- Generator: Adobe Illustrator 21.0.0, SVG Export Plug-In . SVG Version: 6.00 Build 0)  -->
<svg version="1.1" id="Layer_1" xmlns="http://www.w3.org/2000/svg" xmlns:xlink="http://www.w3.org/1999/xlink" x="0px" y="0px"
	 viewBox="0 0 70.3 21.1" style="enable-background:new 0 0 70.3 21.1;" xml:space="preserve">
<style type="text/css">
	.st0{fill:#293134;}
	.st1{fill:#3080E3;}
	.st2{fill:#FCFBF9;}
</style>
		<path class="st1" d="M0,2.8C0,1.3,1.3,0,2.8,0h15.5c1.5,0,2.8,1.3,2.8,2.8v15.5c0,1.5-1.3,2.8-2.8,2.8H2.8c-1.5,0-2.8-1.3-2.8-2.8
			V2.8z"/>
			<!-- <g> -->
		<path class="st0" d="M37.2,11.7c-0.4-0.5-1-0.8-1.7-1c0.6-0.2,1.1-0.5,1.4-1c0.4-0.5,0.6-1.1,0.6-1.8c0-1-0.4-1.8-1.2-2.4
			s-1.8-0.9-3.1-0.9h-5.8v12.6h6c1.4,0,2.5-0.3,3.2-0.9c0.8-0.6,1.2-1.5,1.2-2.5C37.9,12.9,37.6,12.3,37.2,11.7z M30.2,6.7h2.6
			c0.7,0,1.2,0.1,1.6,0.4c0.3,0.2,0.5,0.6,0.5,1.1s-0.2,0.9-0.5,1.1c-0.3,0.2-0.9,0.4-1.6,0.4h-2.6V6.7z M34.7,14.7
			c-0.3,0.3-0.9,0.4-1.6,0.4h-3v-3.2h3c0.7,0,1.3,0.1,1.6,0.4c0.3,0.3,0.5,0.7,0.5,1.2C35.3,14.1,35.1,14.5,34.7,14.7z"/>
		<polygon class="st2" points="10.6,5.1 7.3,10.6 10.6,10.6 		"/>
		 <polygon class="st2" points="10.6,16.2 13.8,10.6 10.6,10.6 		"/>
</svg>
